<?xml version="1.0" encoding="UTF-8" standalone="no"?>
<!-- Created with Inkscape (http://www.inkscape.org/) -->

<svg
   xmlns:dc="http://purl.org/dc/elements/1.1/"
   xmlns:cc="http://creativecommons.org/ns#"
   xmlns:rdf="http://www.w3.org/1999/02/22-rdf-syntax-ns#"
   xmlns:svg="http://www.w3.org/2000/svg"
   xmlns="http://www.w3.org/2000/svg"
   xmlns:sodipodi="http://sodipodi.sourceforge.net/DTD/sodipodi-0.dtd"
   xmlns:inkscape="http://www.inkscape.org/namespaces/inkscape"
   width="283.83493mm"
   height="213.88983mm"
   viewBox="0 0 1005.7144 757.87735"
   id="svg2"
   version="1.1"
   inkscape:version="0.91 r13725"
   sodipodi:docname="idiocracy_wtf.svg"
   inkscape:export-filename="C:\Users\livei\Desktop\g4290.png"
   inkscape:export-xdpi="11.400261"
   inkscape:export-ydpi="11.400261">
  <defs
     id="defs4" />
  <sodipodi:namedview
     id="base"
     pagecolor="#ffffff"
     bordercolor="#666666"
     borderopacity="1.0"
     inkscape:pageopacity="0.0"
     inkscape:pageshadow="2"
     inkscape:zoom="0.35"
     inkscape:cx="944.07643"
     inkscape:cy="448.15964"
     inkscape:document-units="px"
     inkscape:current-layer="layer2"
     showgrid="false"
     objecttolerance="2"
     inkscape:window-width="1920"
     inkscape:window-height="1147"
     inkscape:window-x="-8"
     inkscape:window-y="-8"
     inkscape:window-maximized="1"
     showguides="false"
     fit-margin-top="0"
     fit-margin-left="0"
     fit-margin-right="0"
     fit-margin-bottom="0" />
  <metadata
     id="metadata7">
    <rdf:RDF>
      <cc:Work
         rdf:about="">
        <dc:format>image/svg+xml</dc:format>
        <dc:type
           rdf:resource="http://purl.org/dc/dcmitype/StillImage" />
        <dc:title></dc:title>
      </cc:Work>
    </rdf:RDF>
  </metadata>
  <g
     inkscape:label="Layer 1"
     inkscape:groupmode="layer"
     id="layer1"
     style="display:inline;opacity:0.82222224"
     transform="translate(135.44489,-46.820443)" />
  <g
     inkscape:groupmode="layer"
     id="layer3"
     inkscape:label="Backdrop"
     style="display:inline"
     transform="translate(92.857135,72.447068)">
    <rect
       transform="translate(42.58775,-119.26751)"
       style="opacity:1;fill:#f382af;fill-opacity:1;stroke:none;stroke-width:3;stroke-linecap:square;stroke-miterlimit:4;stroke-dasharray:none;stroke-opacity:1"
       id="rect4282"
       width="1005.7143"
       height="754.28571"
       x="-135.44489"
       y="46.820442"
       ry="100"
       rx="100" />
  </g>
  <g
     inkscape:groupmode="layer"
     id="layer2"
     inkscape:label="Person"
     transform="translate(135.44489,-46.820443)"
     style="display:inline">
    <g
       id="g4290"
       transform="matrix(1.2104411,0,0,1.2104411,-100.51535,-94.437183)"
       style="fill:#ffffff;fill-opacity:1">
      <path
         inkscape:connector-curvature="0"
         id="path4152"
         d="m 386.57617,230.79297 a 111.80072,90.663521 0 0 0 -111.80078,90.66211 111.80072,90.663521 0 0 0 111.80078,90.66406 111.80072,90.663521 0 0 0 111.80078,-90.66406 111.80072,90.663521 0 0 0 -111.80078,-90.66211 z m -24.59765,48.74414 a 12.470239,11.645037 0 0 1 12.46875,11.64453 12.470239,11.645037 0 0 1 -12.46875,11.64453 12.470239,11.645037 0 0 1 -12.47071,-11.64453 12.470239,11.645037 0 0 1 12.47071,-11.64453 z m 50.31054,0 a 12.470239,11.645037 0 0 1 12.46875,11.64453 12.470239,11.645037 0 0 1 -12.46875,11.64453 12.470239,11.645037 0 0 1 -12.4707,-11.64453 12.470239,11.645037 0 0 1 12.4707,-11.64453 z m -32.34179,44.63086 c 2.55607,-0.0281 5.19394,-0.0248 7.91406,0.008 40.94394,0.49049 65.05817,7.76875 64.68945,38.73242 -0.18435,15.48182 -8.32538,11.24733 -11.50195,-1.60547 -7.06568,-28.58856 -34.18857,-21.56051 -53.37305,-21.60156 -20.68832,-0.0443 -45.31042,-4.30185 -49.66797,24.06641 -2.10969,13.73433 -16.78395,13.05213 -16.59961,-2.42969 0.34568,-29.02845 20.19792,-36.748 58.53907,-37.16992 z"
         style="opacity:1;fill:#ffffff;fill-opacity:1;stroke:none;stroke-width:3;stroke-linecap:square;stroke-miterlimit:4;stroke-dasharray:none;stroke-opacity:1" />
      <path
         sodipodi:nodetypes="sccsccccccccssccccccccsccs"
         inkscape:connector-curvature="0"
         id="path4156"
         d="m 229.6601,380.9082 c -3.11257,-0.002 -6.18028,0.14518 -9.19727,0.46289 -38.41947,25.73673 -47.45641,137.82193 -44.56055,180.59571 -19.1975,-58.51974 -41.36257,-93.68618 -67.61718,-107.76172 -39.158854,-20.99373 -123.264829,27.62349 -114.3652384,42.02539 86.4381354,-30.92596 4.9999012,15.59172 0.5273437,35.55078 -11.2536553,47.36317 37.8916167,64.30893 112.6972647,-3.47852 -27.304732,64.93105 101.74234,180.87927 102.79297,103.12696 11.31564,-25.44755 4.70351,-74.40942 38.24805,-79.62696 24.22156,59.4681 -2.9874,130.46604 7.34961,187.60743 29.58923,3.61199 71.42774,2.85603 130.22656,0.90429 -1.98704,-74.31639 4.74982,-143.43904 0.44838,-322.98995 C 341.6234,416.78401 276.34855,380.93139 229.6601,380.9082 Z m 313.83203,0 c -46.68846,0.0232 -111.9633,35.16152 -156.54995,35.70201 -4.30144,179.55091 -6.13601,250.81642 -8.12304,325.13281 58.79882,1.95174 109.20876,1.27913 138.79799,-2.33286 10.33701,-57.14139 -16.87195,-128.13933 7.34961,-187.60743 33.54454,5.21754 26.9324,54.17941 38.24804,79.62696 1.05063,77.75231 130.09771,-38.19591 102.79297,-103.12696 74.80565,67.78745 123.95092,50.84169 112.69727,3.47852 -4.47256,-19.95906 -85.91079,-66.47674 0.52734,-35.55078 8.89959,-14.4019 -75.20638,-63.01912 -114.36523,-42.02539 -26.25461,14.07554 -48.41969,49.24198 -67.61719,107.76172 2.89586,-42.77378 -6.14108,-154.85898 -44.56055,-180.59571 -3.01699,-0.31771 -6.0847,-0.46443 -9.19726,-0.46289 z"
         style="fill:#ffffff;fill-opacity:1;fill-rule:evenodd;stroke:none;stroke-width:1px;stroke-linecap:butt;stroke-linejoin:miter;stroke-opacity:1" />
      <g
         id="flowRoot4185"
         style="font-style:normal;font-weight:normal;font-size:17.5px;line-height:125%;font-family:sans-serif;letter-spacing:0px;word-spacing:0px;display:inline;opacity:1;fill:#ffffff;fill-opacity:1;stroke:none;stroke-width:1px;stroke-linecap:butt;stroke-linejoin:miter;stroke-opacity:1"
         transform="matrix(1.2263266,-1.08342,1.08342,1.2263266,132.77771,-267.73702)">
        <path
           inkscape:connector-curvature="0"
           id="path4194"
           style="font-style:normal;font-variant:normal;font-weight:bold;font-stretch:normal;font-size:180px;font-family:Arial;-inkscape-font-specification:'Arial Bold';fill:#ffffff;fill-opacity:1"
           d="m -196.63477,277.03415 -22.4121,0 q -0.0879,-4.83399 -0.0879,-5.88867 0,-10.89844 3.60352,-17.92969 3.60352,-7.03125 14.41406,-15.82031 10.81055,-8.78907 12.91992,-11.51368 3.25196,-4.30664 3.25196,-9.49218 0,-7.20703 -5.80078,-12.30469 -5.71289,-5.18555 -15.46875,-5.18555 -9.4043,0 -15.73243,5.36133 -6.32812,5.36133 -8.70117,16.34766 l -22.67578,-2.8125 q 0.9668,-15.73242 13.35938,-26.71875 12.48047,-10.98633 32.69531,-10.98633 21.26953,0 33.83789,11.16211 12.56836,11.07422 12.56836,25.83984 0,8.17383 -4.6582,15.46875 -4.57032,7.29492 -19.6875,19.86328 -7.82227,6.50391 -9.75586,10.45899 -1.84571,3.95508 -1.66993,14.15039 z m -22.4121,33.22265 0,-24.69726 24.69726,0 0,24.69726 -24.69726,0 z" />
      </g>
      <g
         id="flowRoot4185-6"
         style="font-style:normal;font-weight:normal;font-size:17.5px;line-height:125%;font-family:sans-serif;letter-spacing:0px;word-spacing:0px;display:inline;opacity:1;fill:#ffffff;fill-opacity:1;stroke:none;stroke-width:1px;stroke-linecap:butt;stroke-linejoin:miter;stroke-opacity:1"
         transform="matrix(1.08342,1.2263266,-1.2263266,1.08342,1155.5028,260.4648)">
        <path
           inkscape:connector-curvature="0"
           id="path4194-8"
           style="font-style:normal;font-variant:normal;font-weight:bold;font-stretch:normal;font-size:180px;font-family:Arial;-inkscape-font-specification:'Arial Bold';fill:#ffffff;fill-opacity:1"
           d="m -196.63477,277.03415 -22.4121,0 q -0.0879,-4.83399 -0.0879,-5.88867 0,-10.89844 3.60352,-17.92969 3.60352,-7.03125 14.41406,-15.82031 10.81055,-8.78907 12.91992,-11.51368 3.25196,-4.30664 3.25196,-9.49218 0,-7.20703 -5.80078,-12.30469 -5.71289,-5.18555 -15.46875,-5.18555 -9.4043,0 -15.73243,5.36133 -6.32812,5.36133 -8.70117,16.34766 l -22.67578,-2.8125 q 0.9668,-15.73242 13.35938,-26.71875 12.48047,-10.98633 32.69531,-10.98633 21.26953,0 33.83789,11.16211 12.56836,11.07422 12.56836,25.83984 0,8.17383 -4.6582,15.46875 -4.57032,7.29492 -19.6875,19.86328 -7.82227,6.50391 -9.75586,10.45899 -1.84571,3.95508 -1.66993,14.15039 z m -22.4121,33.22265 0,-24.69726 24.69726,0 0,24.69726 -24.69726,0 z" />
      </g>
    </g>
  </g>
</svg>
