<?xml version="1.0" encoding="UTF-8" standalone="no"?>
<!-- Created with Inkscape (http://www.inkscape.org/) -->

<svg
   xmlns:dc="http://purl.org/dc/elements/1.1/"
   xmlns:cc="http://creativecommons.org/ns#"
   xmlns:rdf="http://www.w3.org/1999/02/22-rdf-syntax-ns#"
   xmlns:svg="http://www.w3.org/2000/svg"
   xmlns="http://www.w3.org/2000/svg"
   xmlns:sodipodi="http://sodipodi.sourceforge.net/DTD/sodipodi-0.dtd"
   xmlns:inkscape="http://www.inkscape.org/namespaces/inkscape"
   width="283.8349mm"
   height="212.87614mm"
   viewBox="0 0 1005.7143 754.28555"
   id="svg2"
   version="1.1"
   inkscape:version="0.91 r13725"
   sodipodi:docname="microscope.svg"
   inkscape:export-filename="C:\Users\livei\Desktop\microscope.png"
   inkscape:export-xdpi="11.454546"
   inkscape:export-ydpi="11.454546">
  <defs
     id="defs4" />
  <sodipodi:namedview
     id="base"
     pagecolor="#ffffff"
     bordercolor="#666666"
     borderopacity="1.0"
     inkscape:pageopacity="0.0"
     inkscape:pageshadow="2"
     inkscape:zoom="0.7"
     inkscape:cx="196.56167"
     inkscape:cy="309.85796"
     inkscape:document-units="px"
     inkscape:current-layer="layer3"
     showgrid="false"
     objecttolerance="2"
     inkscape:window-width="1920"
     inkscape:window-height="1147"
     inkscape:window-x="-8"
     inkscape:window-y="-8"
     inkscape:window-maximized="1"
     showguides="true"
     fit-margin-top="0"
     fit-margin-left="0"
     fit-margin-right="0"
     fit-margin-bottom="0" />
  <metadata
     id="metadata7">
    <rdf:RDF>
      <cc:Work
         rdf:about="">
        <dc:format>image/svg+xml</dc:format>
        <dc:type
           rdf:resource="http://purl.org/dc/dcmitype/StillImage" />
        <dc:title></dc:title>
      </cc:Work>
    </rdf:RDF>
  </metadata>
  <g
     inkscape:label="Layer 1"
     inkscape:groupmode="layer"
     id="layer1"
     style="display:inline;opacity:0.82222224"
     transform="translate(135.44489,-46.820504)" />
  <g
     inkscape:groupmode="layer"
     id="layer3"
     inkscape:label="Backdrop"
     style="display:inline"
     transform="translate(92.857135,72.447007)">
    <rect
       style="opacity:1;fill:#00b15c;fill-opacity:1;stroke:none;stroke-width:3;stroke-linecap:square;stroke-miterlimit:4;stroke-dasharray:none;stroke-opacity:1"
       id="rect4282"
       width="1005.7143"
       height="754.28571"
       x="-135.44489"
       y="46.820442"
       ry="100"
       rx="100"
       transform="translate(42.58775,-119.26751)" />
    <path
       style="opacity:1;fill:#ffffff;fill-opacity:1;stroke:none;stroke-width:52;stroke-linecap:square;stroke-miterlimit:4;stroke-dasharray:none;stroke-opacity:1"
       d="m 339.737,-35.629569 c -37.68317,0 -68.01943,26.2263635 -68.01943,58.800412 l 0,5.050797 146.00847,0 0,-5.050797 c 0,-32.5740485 -30.33625,-58.800412 -68.01943,-58.800412 l -9.96961,0 z m 81.10971,69.553647 0,50.898403 c 49.66938,3.756104 88.87328,42.719139 92.55855,92.027899 l 51.29982,0 C 560.80824,99.996184 498.28217,37.895818 420.84671,33.924078 Z m -144.54575,1.891643 0,47.175607 136.84169,0 0,-47.175607 -136.84169,0 z m -4.58339,54.769673 0,5.053543 c 0,12.107403 4.1978,23.334323 11.39936,32.666593 2.16157,12.88952 7.90741,24.36604 16.19169,33.20823 l -6.77198,7.67107 20.33242,17.95411 9.30975,-10.54427 c 0.13023,0.0466 0.26251,0.0891 0.39318,0.13474 l 0,29.62015 27.12089,0 0,-27.0879 c 1.19599,-0.175 2.38692,-0.38681 3.57158,-0.63512 l 28.41588,26.24931 18.40503,-19.9255 -20.50839,-18.94393 c 3.14249,-2.54256 6.09843,-5.40617 8.80934,-8.59213 l 4.44041,-16.23843 c 15.2159,-10.76563 24.89931,-27.1367 24.89931,-45.536923 l 0,-5.053543 -146.00847,0 z m 16.86807,83.075586 -8.97431,10.16483 20.32968,17.95136 8.97704,-10.16482 -20.33241,-17.95137 z m 224.74263,9.89813 -20.85481,109.12418 -35.95499,0 0,27.12913 -206.08464,0 0,37.56892 43.48031,0 40.62359,31.08015 84.67029,0 -28.75409,125.29663 -194.44883,33.18622 -36.97228,98.07677 501.93436,0 -48.34963,-169.17835 -33.59317,5.73267 -14.73722,-124.19409 22.34228,0 0,-37.56892 -2.60099,0 -4.54216,-27.12913 -13.24425,0 -1.47097,-108.95646 -51.4428,-0.16772 z m -108.85747,5.44122 -18.40504,19.9255 4.79785,4.42941 18.40228,-19.92274 -4.79509,-4.43217 z m -81.89881,23.31837 0,6.53001 27.12089,0 0,-6.53001 -27.12089,0 z"
       id="rect5290"
       inkscape:connector-curvature="0" />
  </g>
  <g
     inkscape:groupmode="layer"
     id="layer4"
     inkscape:label="awdawd"
     style="display:inline" />
  <g
     inkscape:groupmode="layer"
     id="layer2"
     inkscape:label="Wheel"
     transform="translate(135.44489,-46.820504)"
     style="display:inline" />
</svg>
