<?xml version="1.0" encoding="UTF-8" standalone="no"?>
<!-- Created with Inkscape (http://www.inkscape.org/) -->

<svg
   xmlns:dc="http://purl.org/dc/elements/1.1/"
   xmlns:cc="http://creativecommons.org/ns#"
   xmlns:rdf="http://www.w3.org/1999/02/22-rdf-syntax-ns#"
   xmlns:svg="http://www.w3.org/2000/svg"
   xmlns="http://www.w3.org/2000/svg"
   xmlns:sodipodi="http://sodipodi.sourceforge.net/DTD/sodipodi-0.dtd"
   xmlns:inkscape="http://www.inkscape.org/namespaces/inkscape"
   width="283.8349mm"
   height="212.87614mm"
   viewBox="0 0 1005.7143 754.28555"
   id="svg2"
   version="1.1"
   inkscape:version="0.91 r13725"
   sodipodi:docname="navigation.svg"
   inkscape:export-filename="C:\Users\livei\Desktop\g4290.png"
   inkscape:export-xdpi="11.400261"
   inkscape:export-ydpi="11.400261">
  <defs
     id="defs4" />
  <sodipodi:namedview
     id="base"
     pagecolor="#ffffff"
     bordercolor="#666666"
     borderopacity="1.0"
     inkscape:pageopacity="0.0"
     inkscape:pageshadow="2"
     inkscape:zoom="0.49497475"
     inkscape:cx="40.160857"
     inkscape:cy="488.89848"
     inkscape:document-units="px"
     inkscape:current-layer="layer3"
     showgrid="false"
     objecttolerance="2"
     inkscape:window-width="1920"
     inkscape:window-height="1147"
     inkscape:window-x="-8"
     inkscape:window-y="-8"
     inkscape:window-maximized="1"
     showguides="true"
     fit-margin-top="0"
     fit-margin-left="0"
     fit-margin-right="0"
     fit-margin-bottom="0" />
  <metadata
     id="metadata7">
    <rdf:RDF>
      <cc:Work
         rdf:about="">
        <dc:format>image/svg+xml</dc:format>
        <dc:type
           rdf:resource="http://purl.org/dc/dcmitype/StillImage" />
        <dc:title></dc:title>
      </cc:Work>
    </rdf:RDF>
  </metadata>
  <g
     inkscape:label="Layer 1"
     inkscape:groupmode="layer"
     id="layer1"
     style="display:inline;opacity:0.82222224"
     transform="translate(135.44489,-46.820504)" />
  <g
     inkscape:groupmode="layer"
     id="layer3"
     inkscape:label="Backdrop"
     style="display:inline"
     transform="translate(92.857135,72.447007)">
    <rect
       style="opacity:1;fill:#00b1ee;fill-opacity:1;stroke:none;stroke-width:3;stroke-linecap:square;stroke-miterlimit:4;stroke-dasharray:none;stroke-opacity:1"
       id="rect4282"
       width="1005.7143"
       height="754.28571"
       x="-135.44489"
       y="46.820442"
       ry="100"
       rx="100"
       transform="translate(42.58775,-119.26751)" />
  </g>
  <g
     inkscape:groupmode="layer"
     id="layer2"
     inkscape:label="Wheel"
     transform="translate(135.44489,-46.820504)"
     style="display:inline">
    <g
       id="g5201"
       transform="matrix(1.1127237,0,0,1.1127237,-57.312105,-58.145611)">
      <circle
         transform="matrix(0.70710676,0.7071068,-0.70710676,0.7071068,0,0)"
         r="206.40256"
         cy="36.466343"
         cx="576.2688"
         id="path4846"
         style="opacity:1;fill:none;fill-opacity:1;stroke:#ffffff;stroke-width:52.00000763;stroke-linecap:square;stroke-miterlimit:4;stroke-dasharray:none;stroke-opacity:1" />
      <ellipse
         ry="47.013638"
         rx="47.013626"
         cy="433.2692"
         cx="381.69797"
         id="path4846-5"
         style="display:inline;opacity:1;fill:none;fill-opacity:1;stroke:#ffffff;stroke-width:33.38626862;stroke-linecap:square;stroke-miterlimit:4;stroke-dasharray:none;stroke-opacity:1" />
      <path
         inkscape:connector-curvature="0"
         id="path4873-2"
         d="m 371.77102,617.64876 0,-11.34466 3.29876,0 c -1.52645,-1.11085 -2.46247,-2.84809 -1.75146,-5.65082 2.89689,-5.43728 0.81376,-8.71635 0.0894,-14.5396 -1.97822,-7.60015 -6.88081,-18.55429 -2.13273,-26.27319 4.60801,-3.05906 -3.93991,-9.70713 -3.93991,-9.70713 0,0 7.11234,-5.29953 4.82912,-7.30692 -3.01443,-3.75891 -6.19303,-10.244 -5.79093,-20.88644 0.0419,-4.31482 1.44379,-9.02717 4.49763,-12.2845 l -5.97227,0 0,-16.36274 33.59862,0 0,16.36274 -6.18063,0 c 3.17913,3.23018 4.66332,7.91401 4.70593,12.2845 0.40211,10.64244 -2.77643,17.12753 -5.79086,20.88644 -2.28323,2.00739 4.82912,7.30692 4.82912,7.30692 0,0 -8.54793,6.64807 -3.93991,9.70713 4.74808,7.71891 -0.15457,18.67304 -2.13279,26.27319 -0.72428,5.82325 -2.80736,9.10232 0.0894,14.5396 0.71101,2.80273 -0.22495,4.53997 -1.75141,5.65082 l 3.29871,0 0,11.34466 -19.85383,0 z"
         style="display:inline;fill:#ffffff;fill-opacity:1;fill-rule:evenodd;stroke:none;stroke-width:1.00000012;stroke-linecap:butt;stroke-linejoin:miter;stroke-miterlimit:4;stroke-dasharray:none;stroke-opacity:1" />
      <path
         inkscape:connector-curvature="0"
         id="path4873-2-2"
         d="m 371.77108,248.88962 0,11.34466 3.2987,0 c -1.52645,1.11085 -2.46247,2.84809 -1.7514,5.65082 2.89683,5.43728 0.8137,8.71635 0.0894,14.5396 -1.97816,7.60015 -6.88081,18.5543 -2.13273,26.2732 4.60801,3.05906 -3.93991,9.70713 -3.93991,9.70713 0,0 7.11234,5.29953 4.82912,7.30692 -3.01443,3.75891 -6.19303,10.244 -5.79087,20.88644 0.0419,4.31482 1.44373,9.02717 4.49757,12.28451 l -5.97227,0 0,16.36274 33.59862,0 0,-16.36274 -6.18057,0 c 3.17913,-3.23019 4.66326,-7.91402 4.70587,-12.28451 0.40217,-10.64244 -2.77638,-17.12753 -5.79081,-20.88644 -2.28322,-2.00739 4.82907,-7.30692 4.82907,-7.30692 0,0 -8.54793,-6.64807 -3.93986,-9.70713 4.74803,-7.71891 -0.15456,-18.67305 -2.13279,-26.2732 -0.72428,-5.82325 -2.80741,-9.10232 0.0894,-14.5396 0.711,-2.80273 -0.22495,-4.53997 -1.75147,-5.65082 l 3.29871,0 0,-11.34466 -19.85377,0 z"
         style="display:inline;fill:#ffffff;fill-opacity:1;fill-rule:evenodd;stroke:none;stroke-width:1.00000012;stroke-linecap:butt;stroke-linejoin:miter;stroke-miterlimit:4;stroke-dasharray:none;stroke-opacity:1" />
      <path
         inkscape:connector-curvature="0"
         id="path4873-2-6"
         d="m 566.07755,423.34228 -11.34467,0 0,3.29871 c -1.11085,-1.52646 -2.84811,-2.46247 -5.65086,-1.75141 -5.43726,2.89683 -8.71634,0.8137 -14.53958,0.0894 -7.60015,-1.97822 -18.5543,-6.88087 -26.27321,-2.13279 -3.05902,4.60802 -9.70714,-3.93991 -9.70714,-3.93991 0,0 -5.29952,7.11235 -7.3069,4.82912 -3.75892,-3.01443 -10.24397,-6.19303 -20.88643,-5.79086 -4.31483,0.0419 -9.02716,1.44373 -12.28453,4.49757 l 0,-5.97228 -16.36272,0 0,33.59869 16.36272,0 0,-6.18063 c 3.23018,3.17913 7.91405,4.66332 12.28453,4.70587 10.64246,0.40217 17.12751,-2.77638 20.88643,-5.79081 2.00738,-2.28322 7.3069,4.82912 7.3069,4.82912 0,0 6.64812,-8.54792 9.70714,-3.93991 7.71891,4.74809 18.67306,-0.15456 26.27321,-2.13279 5.82324,-0.72428 9.10232,-2.8074 14.53958,0.0894 2.80275,0.711 4.54001,-0.22495 5.65086,-1.75141 l 0,3.29865 11.34467,0 0,-19.85378 z"
         style="display:inline;fill:#ffffff;fill-opacity:1;fill-rule:evenodd;stroke:none;stroke-width:1.00000012;stroke-linecap:butt;stroke-linejoin:miter;stroke-miterlimit:4;stroke-dasharray:none;stroke-opacity:1" />
      <path
         inkscape:connector-curvature="0"
         id="path4873-2-6-2"
         d="m 197.31835,423.34228 11.34468,0 0,3.29871 c 1.11084,-1.52645 2.8481,-2.46247 5.65086,-1.7514 5.43725,2.89683 8.71634,0.8137 14.53957,0.0894 7.60015,-1.97823 18.5543,-6.88088 26.27321,-2.1328 3.05902,4.60802 9.70714,-3.93991 9.70714,-3.93991 0,0 5.29952,7.11235 7.30691,4.82912 3.75891,-3.01443 10.24396,-6.19303 20.88644,-5.79086 4.31483,0.0419 9.02716,1.44373 12.28453,4.49757 l 0,-5.97228 16.36272,0 0,33.5987 -16.36272,0 0,-6.18063 c -3.23018,3.17912 -7.91405,4.66331 -12.28453,4.70587 -10.64248,0.40216 -17.12753,-2.77638 -20.88644,-5.79081 -2.00739,-2.28322 -7.30691,4.82912 -7.30691,4.82912 0,0 -6.64812,-8.54792 -9.70714,-3.93991 -7.71891,4.74808 -18.67306,-0.15457 -26.27321,-2.13279 -5.82323,-0.72428 -9.10232,-2.80741 -14.53957,0.0894 -2.80276,0.71101 -4.54002,-0.22495 -5.65086,-1.7514 l 0,3.29864 -11.34468,0 0,-19.85378 z"
         style="display:inline;fill:#ffffff;fill-opacity:1;fill-rule:evenodd;stroke:none;stroke-width:1.00000012;stroke-linecap:butt;stroke-linejoin:miter;stroke-miterlimit:4;stroke-dasharray:none;stroke-opacity:1" />
      <path
         inkscape:connector-curvature="0"
         id="path4873-2-66"
         d="m 244.3025,556.6259 8.02188,-8.02188 2.33258,2.33257 c -0.29387,-1.86485 0.27267,-3.75513 2.75727,-5.2342 5.89315,-1.79633 6.7388,-5.58798 10.34426,-10.21784 3.97531,-6.77293 8.2544,-17.98533 17.06989,-20.08602 5.42143,1.09528 4.07804,-9.64991 4.07804,-9.64991 0,0 8.77652,1.28184 8.58148,-1.75208 0.52643,-4.78947 2.86447,-11.62273 10.67414,-18.86375 3.08066,-3.02141 7.40408,-5.36226 11.86675,-5.50615 l -4.22303,-4.22303 11.5702,-11.5702 23.75782,23.75781 -11.57021,11.5702 -4.37036,-4.37036 c -0.0361,4.53207 -2.29859,8.89351 -5.35886,12.01405 -7.24101,7.80967 -14.07422,10.14776 -18.8637,10.67418 -3.03393,-0.19504 -1.75208,8.58149 -1.75208,8.58149 0,0 -10.74519,-1.34341 -9.64991,4.07804 -2.10069,8.81549 -13.31313,13.09453 -20.08606,17.06984 -4.6298,3.60551 -8.42141,4.45121 -10.21783,10.34426 -1.47908,2.4846 -3.36932,3.05119 -5.23418,2.75731 l 2.33254,2.33254 -8.02188,8.02189 -14.03878,-14.03878 z"
         style="display:inline;fill:#ffffff;fill-opacity:1;fill-rule:evenodd;stroke:none;stroke-width:1.00000012;stroke-linecap:butt;stroke-linejoin:miter;stroke-miterlimit:4;stroke-dasharray:none;stroke-opacity:1" />
      <path
         inkscape:connector-curvature="0"
         id="path4873-2-2-4"
         d="m 505.05466,295.87381 -8.02189,8.02189 2.33253,2.33254 c -1.86485,-0.29388 -3.75513,0.27267 -5.23416,2.7573 -1.79637,5.89311 -5.58801,6.73877 -10.21783,10.34427 -6.77289,3.97534 -17.98534,8.2544 -20.08602,17.06989 1.09527,5.42143 -9.64992,4.07804 -9.64992,4.07804 0,0 1.28185,8.77652 -1.75207,8.58148 -4.78948,0.52643 -11.62274,2.86447 -18.86371,10.67418 -3.02141,3.08067 -5.3623,7.40405 -5.5062,11.86672 l -4.22303,-4.22303 -11.5702,11.57021 23.75781,23.75781 11.5702,-11.57021 -4.37032,-4.37032 c 4.53207,-0.0361 8.89348,-2.29863 12.01401,-5.35891 7.80972,-7.24096 10.1478,-14.07419 10.67422,-18.86366 -0.19503,-3.03393 8.58145,-1.75211 8.58145,-1.75211 0,0 -1.3434,-10.7452 4.07808,-9.64988 8.81545,-2.10073 13.09454,-13.31313 17.06984,-20.08607 3.60552,-4.6298 4.45117,-8.42145 10.34427,-10.21783 2.48458,-1.47908 3.05118,-3.36931 2.75725,-5.23421 l 2.33254,2.33254 8.0219,-8.0219 -14.03874,-14.03873 z"
         style="display:inline;fill:#ffffff;fill-opacity:1;fill-rule:evenodd;stroke:none;stroke-width:1.00000012;stroke-linecap:butt;stroke-linejoin:miter;stroke-miterlimit:4;stroke-dasharray:none;stroke-opacity:1" />
      <path
         inkscape:connector-curvature="0"
         id="path4873-2-6-0"
         d="m 519.09343,556.62593 -8.0219,-8.02189 -2.33254,2.33254 c 0.29388,-1.86486 -0.27269,-3.75515 -2.75732,-5.23419 -5.8931,-1.79636 -6.73876,-5.58802 -10.34425,-10.21783 -3.97531,-6.77293 -8.25437,-17.98538 -17.06986,-20.08607 -5.42142,1.09531 -4.07805,-9.64992 -4.07805,-9.64992 0,0 -8.77651,1.28186 -8.58146,-1.75206 -0.52644,-4.78949 -2.86445,-11.62272 -10.67419,-18.8637 -3.08067,-3.02142 -7.40403,-5.36229 -11.86673,-5.50621 l 4.22304,-4.22304 -11.57019,-11.57019 -23.75787,23.75787 11.57019,11.57019 4.37036,-4.37037 c 0.0361,4.53207 2.29862,8.89354 5.35893,12.01403 7.24098,7.80973 14.07417,10.14778 18.86366,10.67422 3.03391,-0.19505 1.75206,8.58146 1.75206,8.58146 0,0 10.74522,-1.34336 9.64992,4.07805 2.10068,8.8155 13.31314,13.09456 20.08607,17.06986 4.6298,3.60551 8.42145,4.45118 10.21782,10.34425 1.47909,2.4846 3.36934,3.05121 5.2342,2.75733 l -2.3325,2.33249 8.02189,8.0219 14.03875,-14.03875 z"
         style="display:inline;fill:#ffffff;fill-opacity:1;fill-rule:evenodd;stroke:none;stroke-width:1.00000012;stroke-linecap:butt;stroke-linejoin:miter;stroke-miterlimit:4;stroke-dasharray:none;stroke-opacity:1" />
      <path
         inkscape:connector-curvature="0"
         id="path4873-2-6-2-6"
         d="m 258.34127,295.87376 8.0219,8.0219 -2.33254,2.33254 c 1.86484,-0.29388 3.75514,0.27268 5.23419,2.75734 1.79634,5.89308 5.58801,6.73875 10.21781,10.34424 6.77294,3.9753 17.98539,8.25436 20.08608,17.06985 -1.09531,5.42142 9.64993,4.07805 9.64993,4.07805 0,0 -1.28186,8.77652 1.75206,8.58147 4.78948,0.52643 11.62271,2.86444 18.8637,10.67419 3.02142,3.08067 5.3623,7.40404 5.50621,11.86674 l 4.22304,-4.22304 11.57019,11.57019 -23.75787,23.75788 -11.57019,-11.5702 4.37036,-4.37036 c -4.53205,-0.0361 -8.89353,-2.29862 -12.01402,-5.35892 -7.80974,-7.241 -10.1478,-14.07419 -10.67422,-18.86367 0.19504,-3.03392 -8.58147,-1.75206 -8.58147,-1.75206 0,0 1.34335,-10.74523 -4.07806,-9.64993 -8.81549,-2.10069 -13.09455,-13.31315 -17.06985,-20.08608 -3.60551,-4.62979 -4.45118,-8.42145 -10.34425,-10.21781 -2.48461,-1.47909 -3.05121,-3.36934 -2.75733,-5.23419 l -2.33249,2.33249 -8.0219,-8.0219 14.03875,-14.03875 z"
         style="display:inline;fill:#ffffff;fill-opacity:1;fill-rule:evenodd;stroke:none;stroke-width:1.00000012;stroke-linecap:butt;stroke-linejoin:miter;stroke-miterlimit:4;stroke-dasharray:none;stroke-opacity:1" />
      <path
         inkscape:connector-curvature="0"
         id="path5009-5"
         d="m 381.6971,110.66179 c -5.67419,0.93191 -7.89085,4.33322 -9.99167,8.98892 -1.77034,4.82299 -1.35188,10.05879 -0.72545,15.03182 0.64358,5.16799 1.34681,11.21875 4.25152,15.76556 2.54173,3.77031 3.52515,12.01237 1.41146,16.3191 -1.61418,4.65417 -5.39101,6.37143 -6.75544,12.66504 -0.48146,5.99637 1.02542,8.64605 4.3287,9.50017 l -5.38,0 0,13.79049 25.72349,0 0,-13.79049 -5.38172,0 c 3.30328,-0.85411 4.81188,-3.5038 4.33041,-9.50017 -1.36443,-6.29361 -5.14126,-8.01087 -6.75544,-12.66504 -2.11369,-4.30673 -1.13027,-12.54879 1.41146,-16.3191 2.90471,-4.54681 3.60794,-10.59757 4.25152,-15.76556 0.62644,-4.97303 1.0449,-10.20883 -0.72545,-15.03182 -2.10081,-4.6557 -4.3192,-8.05702 -9.99339,-8.98892 z"
         style="display:inline;fill:#ffffff;fill-opacity:1;fill-rule:evenodd;stroke:none;stroke-width:1px;stroke-linecap:butt;stroke-linejoin:miter;stroke-opacity:1" />
      <path
         inkscape:connector-curvature="0"
         id="path5009-5-4"
         d="m 704.30538,433.26833 c -0.93191,-5.67419 -4.33322,-7.89085 -8.98892,-9.99167 -4.82299,-1.77034 -10.0588,-1.35188 -15.03183,-0.72545 -5.16799,0.64358 -11.21875,1.34681 -15.76556,4.25152 -3.77031,2.54173 -12.01236,3.52515 -16.31909,1.41146 -4.65417,-1.61418 -6.37143,-5.39101 -12.66504,-6.75544 -5.99638,-0.48146 -8.64606,1.02542 -9.50018,4.3287 l 0,-5.38 -13.79049,0 0,25.7235 13.79049,0 0,-5.38172 c 0.85411,3.30328 3.5038,4.81188 9.50018,4.33041 6.29361,-1.36443 8.01087,-5.14126 12.66504,-6.75544 4.30673,-2.11369 12.54878,-1.13027 16.31909,1.41146 4.54681,2.90471 10.59757,3.60794 15.76556,4.25152 4.97303,0.62644 10.20884,1.0449 15.03183,-0.72545 4.6557,-2.10081 8.05702,-4.3192 8.98892,-9.9934 z"
         style="display:inline;fill:#ffffff;fill-opacity:1;fill-rule:evenodd;stroke:none;stroke-width:1px;stroke-linecap:butt;stroke-linejoin:miter;stroke-opacity:1" />
      <path
         inkscape:connector-curvature="0"
         id="path5009-5-4-6"
         d="m 59.090533,433.26833 c 0.93191,-5.67419 4.33323,-7.89085 8.98893,-9.99167 4.82299,-1.77034 10.0588,-1.35188 15.03183,-0.72545 5.16799,0.64358 11.21875,1.34681 15.76556,4.25152 3.770307,2.54173 12.012357,3.52515 16.319087,1.41146 4.65418,-1.61418 6.37144,-5.39101 12.66505,-6.75544 5.99638,-0.48146 8.64606,1.02542 9.50018,4.3287 l 0,-5.38 13.79049,0 0,25.7235 -13.79049,0 0,-5.38172 c -0.85411,3.30328 -3.5038,4.81188 -9.50018,4.33041 -6.29361,-1.36443 -8.01087,-5.14126 -12.66505,-6.75544 -4.30673,-2.11369 -12.54878,-1.13027 -16.319087,1.41146 -4.54681,2.90471 -10.59757,3.60794 -15.76556,4.25152 -4.97303,0.62644 -10.20884,1.0449 -15.03183,-0.72545 -4.6557,-2.10081 -8.05703,-4.3192 -8.98893,-9.9934 z"
         style="display:inline;fill:#ffffff;fill-opacity:1;fill-rule:evenodd;stroke:none;stroke-width:1px;stroke-linecap:butt;stroke-linejoin:miter;stroke-opacity:1" />
      <path
         inkscape:connector-curvature="0"
         id="path5009-5-9"
         d="m 380.26859,755.87661 c -5.67419,-0.93191 -7.89085,-4.33322 -9.99167,-8.98892 -1.77034,-4.82299 -1.35188,-10.05879 -0.72545,-15.03182 0.64358,-5.16799 1.34681,-11.21875 4.25152,-15.76556 2.54173,-3.77031 3.52515,-12.01238 1.41146,-16.3191 -1.61418,-4.65417 -5.39101,-6.37143 -6.75544,-12.66504 -0.48146,-5.99638 1.02542,-8.64606 4.3287,-9.50018 l -5.38,0 0,-13.79049 25.72349,0 0,13.79049 -5.38172,0 c 3.30328,0.85411 4.81188,3.5038 4.33041,9.50018 -1.36443,6.29361 -5.14126,8.01087 -6.75544,12.66504 -2.11369,4.30672 -1.13027,12.54879 1.41146,16.3191 2.90471,4.54681 3.60794,10.59757 4.25152,15.76556 0.62644,4.97303 1.0449,10.20883 -0.72545,15.03182 -2.10081,4.6557 -4.3192,8.05702 -9.99339,8.98892 z"
         style="display:inline;fill:#ffffff;fill-opacity:1;fill-rule:evenodd;stroke:none;stroke-width:1px;stroke-linecap:butt;stroke-linejoin:miter;stroke-opacity:1" />
      <path
         inkscape:connector-curvature="0"
         id="path5009-5-2"
         d="m 609.81529,205.15067 c -4.67122,-3.3533 -8.64372,-2.51562 -13.4213,-0.70905 -4.66219,2.15855 -8.06856,6.15672 -11.14208,10.11613 -3.19924,4.1094 -6.98051,8.8852 -8.14165,14.15422 -0.86874,4.46329 -6.00138,10.98669 -10.54129,12.5374 -4.4324,2.14959 -8.3173,0.69326 -13.73236,4.17871 -4.58052,3.89964 -5.3886,6.83877 -3.65678,9.7785 l -3.80424,-3.80424 -9.75135,9.75135 18.18926,18.18926 9.75135,-9.75135 -3.80546,-3.80545 c 2.93972,1.73182 5.88008,0.92495 9.77971,-3.65558 3.48545,-5.41505 2.02912,-9.29996 4.17872,-13.73235 1.5507,-4.53992 8.07411,-9.67256 12.53739,-10.5413 5.26902,-1.16114 10.04482,-4.94241 14.15422,-8.14165 3.95942,-3.07351 7.95759,-6.47988 10.11613,-11.14208 1.80658,-4.77757 2.64304,-8.75131 -0.71027,-13.42252 z"
         style="display:inline;fill:#ffffff;fill-opacity:1;fill-rule:evenodd;stroke:none;stroke-width:1px;stroke-linecap:butt;stroke-linejoin:miter;stroke-opacity:1" />
      <path
         inkscape:connector-curvature="0"
         id="path5009-5-4-3"
         d="m 609.81653,661.38652 c 3.35329,-4.67121 2.51562,-8.64372 0.70905,-13.4213 -2.15855,-4.66219 -6.15673,-8.06858 -10.11615,-11.14209 -4.1094,-3.19924 -8.88519,-6.98051 -14.15421,-8.14165 -4.46329,-0.86874 -10.98668,-6.00137 -12.53739,-10.54129 -2.1496,-4.43239 -0.69327,-8.3173 -4.17872,-13.73235 -3.89964,-4.58053 -6.83877,-5.38861 -9.7785,-3.65679 l 3.80424,-3.80424 -9.75135,-9.75135 -18.18926,18.18926 9.75135,9.75135 3.80545,-3.80545 c -1.73183,2.93972 -0.92495,5.88008 3.65558,9.77971 5.41505,3.48545 9.29996,2.02912 13.73235,4.17872 4.53992,1.55071 9.67255,8.0741 10.54129,12.53739 1.16114,5.26902 4.94241,10.04481 8.14165,14.15421 3.07351,3.95943 6.47989,7.95761 11.14209,10.11615 4.77757,1.80658 8.75131,2.64304 13.42253,-0.71028 z"
         style="display:inline;fill:#ffffff;fill-opacity:1;fill-rule:evenodd;stroke:none;stroke-width:1px;stroke-linecap:butt;stroke-linejoin:miter;stroke-opacity:1" />
      <path
         inkscape:connector-curvature="0"
         id="path5009-5-4-6-5"
         d="m 153.58067,205.15064 c 4.67122,-3.35329 8.64373,-2.51561 13.42131,-0.70904 4.66219,2.15855 8.06857,6.15672 11.14208,10.11614 3.19924,4.1094 6.98052,8.88519 8.14166,14.15422 0.86874,4.46328 6.00136,10.98667 10.54129,12.53739 4.4324,2.1496 8.3173,0.69327 13.73236,4.17872 4.58052,3.89964 5.3886,6.83877 3.65679,9.7785 l 3.80423,-3.80423 9.75135,9.75135 -18.18926,18.18926 -9.75135,-9.75135 3.80545,-3.80545 c -2.93972,1.73182 -5.88007,0.92495 -9.7797,-3.65558 -3.48546,-5.41506 -2.02913,-9.29996 -4.17873,-13.73236 -1.55071,-4.53993 -8.07411,-9.67256 -12.53739,-10.54129 -5.26902,-1.16114 -10.04482,-4.94242 -14.15422,-8.14166 -3.95942,-3.0735 -7.95759,-6.47989 -10.11614,-11.14208 -1.80658,-4.77758 -2.64304,-8.75132 0.71027,-13.42254 z"
         style="display:inline;fill:#ffffff;fill-opacity:1;fill-rule:evenodd;stroke:none;stroke-width:1px;stroke-linecap:butt;stroke-linejoin:miter;stroke-opacity:1" />
      <path
         inkscape:connector-curvature="0"
         id="path5009-5-9-7"
         d="m 152.56935,660.37642 c -3.35329,-4.67122 -2.51562,-8.64373 -0.70905,-13.42131 2.15856,-4.66219 6.15672,-8.06857 10.11614,-11.14208 4.1094,-3.19924 8.88519,-6.98051 14.15421,-8.14165 4.46329,-0.86874 10.9867,-6.00138 12.5374,-10.5413 2.1496,-4.43239 0.69326,-8.3173 4.17872,-13.73235 3.89964,-4.58053 6.83878,-5.38861 9.7785,-3.65679 l -3.80423,-3.80424 9.75134,-9.75135 18.18926,18.18926 -9.75135,9.75135 -3.80545,-3.80546 c 1.73182,2.93972 0.92495,5.88008 -3.65559,9.77972 -5.41505,3.48545 -9.29996,2.02912 -13.73235,4.17871 -4.53991,1.55071 -9.67255,8.07412 -10.54129,12.5374 -1.16114,5.26902 -4.94242,10.04482 -8.14166,14.15422 -3.0735,3.95942 -6.47987,7.95759 -11.14208,10.11613 -4.77757,1.80658 -8.7513,2.64304 -13.42252,-0.71026 z"
         style="display:inline;fill:#ffffff;fill-opacity:1;fill-rule:evenodd;stroke:none;stroke-width:1px;stroke-linecap:butt;stroke-linejoin:miter;stroke-opacity:1" />
    </g>
  </g>
</svg>
