<?xml version="1.0" encoding="UTF-8" standalone="no"?>
<!-- Created with Inkscape (http://www.inkscape.org/) -->

<svg
   xmlns:dc="http://purl.org/dc/elements/1.1/"
   xmlns:cc="http://creativecommons.org/ns#"
   xmlns:rdf="http://www.w3.org/1999/02/22-rdf-syntax-ns#"
   xmlns:svg="http://www.w3.org/2000/svg"
   xmlns="http://www.w3.org/2000/svg"
   xmlns:sodipodi="http://sodipodi.sourceforge.net/DTD/sodipodi-0.dtd"
   xmlns:inkscape="http://www.inkscape.org/namespaces/inkscape"
   width="283.8349mm"
   height="212.87614mm"
   viewBox="0 0 1005.7143 754.28555"
   id="svg2"
   version="1.1"
   inkscape:version="0.91 r13725"
   sodipodi:docname="sextant.svg"
   inkscape:export-filename="C:\Users\livei\Desktop\code.png"
   inkscape:export-xdpi="11.454546"
   inkscape:export-ydpi="11.454546">
  <defs
     id="defs4" />
  <sodipodi:namedview
     id="base"
     pagecolor="#ffffff"
     bordercolor="#666666"
     borderopacity="1.0"
     inkscape:pageopacity="0.0"
     inkscape:pageshadow="2"
     inkscape:zoom="0.7"
     inkscape:cx="426.70832"
     inkscape:cy="252.7151"
     inkscape:document-units="px"
     inkscape:current-layer="layer3"
     showgrid="false"
     objecttolerance="2"
     inkscape:window-width="1920"
     inkscape:window-height="1147"
     inkscape:window-x="-8"
     inkscape:window-y="-8"
     inkscape:window-maximized="1"
     showguides="true"
     fit-margin-top="0"
     fit-margin-left="0"
     fit-margin-right="0"
     fit-margin-bottom="0" />
  <metadata
     id="metadata7">
    <rdf:RDF>
      <cc:Work
         rdf:about="">
        <dc:format>image/svg+xml</dc:format>
        <dc:type
           rdf:resource="http://purl.org/dc/dcmitype/StillImage" />
        <dc:title></dc:title>
      </cc:Work>
    </rdf:RDF>
  </metadata>
  <g
     inkscape:label="Layer 1"
     inkscape:groupmode="layer"
     id="layer1"
     style="display:inline;opacity:0.82222224"
     transform="translate(135.44489,-46.820504)" />
  <g
     inkscape:groupmode="layer"
     id="layer3"
     inkscape:label="Backdrop"
     style="display:inline"
     transform="translate(92.857135,72.447007)">
    <rect
       style="opacity:1;fill:#ff5629;fill-opacity:1;stroke:none;stroke-width:3;stroke-linecap:square;stroke-miterlimit:4;stroke-dasharray:none;stroke-opacity:1"
       id="rect4282"
       width="1005.7143"
       height="754.28571"
       x="-92.857147"
       y="-72.447083"
       ry="100"
       rx="100"
       inkscape:export-xdpi="11.454546"
       inkscape:export-ydpi="11.454546" />
    <g
       id="g6558"
       transform="matrix(7.1504025,0,0,7.1504025,-104.82898,-211.85288)"
       style="fill:#ffffff">
      <path
         style="fill:#ffffff"
         inkscape:connector-curvature="0"
         d="m 70.929,106.208 c 2.052,0 3.721,-1.67 3.721,-3.722 0,-2.051 -1.669,-3.719 -3.721,-3.719 -2.054,0 -3.724,1.668 -3.724,3.719 0.001,2.052 1.671,3.722 3.724,3.722 z"
         id="path6560" />
      <circle
         style="fill:#ffffff"
         cx="66.959"
         cy="111.545"
         r="1.645"
         id="circle6562" />
      <circle
         style="fill:#ffffff"
         cx="74.898003"
         cy="111.545"
         r="1.646"
         id="circle6564" />
      <path
         style="fill:#ffffff"
         inkscape:connector-curvature="0"
         d="m 113.655,68.072 0,-8.01 -3.178,0 0,0.607 -1.911,0 0,0.475 -5.217,0 0,-1.453 -3.179,0 0,1.036 -5.217,0 0,-2.574 -3.832,0 0,1.067 -7.025,0 -5.571,-12.438 c 0.199,-0.422 0.366,-0.862 0.494,-1.319 l 4.924,0 0,-4.523 -4.925,0 c -0.846,-3.024 -3.344,-5.362 -6.454,-5.979 l 0,-1.751 0,-1.56 2.877,0 0,-4.15 -9.028,0 0,4.15 2.73,0 0,1.56 0,1.783 c -3.043,0.662 -5.474,2.972 -6.308,5.948 l -5.075,0 0,4.523 5.076,0 c 0.127,0.456 0.294,0.896 0.492,1.316 l -7.014,15.658 -0.246,0.306 -8.524,-13.57 -3.612,2.269 9.308,14.817 -1.229,1.527 -8.157,-12.987 -3.614,2.27 8.938,14.232 -1.11,1.382 c -0.476,-0.703 -1.277,-1.165 -2.188,-1.165 -1.453,0 -2.636,1.183 -2.636,2.637 0,1.242 0.867,2.281 2.025,2.559 l 0.784,8.626 -3.118,6.964 c -2.572,-1.027 -5.073,-2.191 -7.481,-3.506 l -0.569,-0.311 -4.54,8.764 0.562,0.293 c 8.901,4.628 18.823,7.613 29.142,8.855 l 0,3.015 -3.137,0 0,0.729 -1.812,0 0,-2.604 -4.15,0 0,9.025 4.15,0 0,-2.998 1.812,0 0,0.557 3.137,0 0,2.857 21.757,0 0,-2.857 3.271,0 0,-4.711 -3.271,0 0,-3.013 c 10.32,-1.242 20.24,-4.229 29.141,-8.856 l 0.562,-0.293 -4.537,-8.765 -0.569,0.312 c -2.407,1.313 -4.91,2.479 -7.479,3.507 l -10.431,-23.28 2.632,0 0,1.122 3.832,0 0,-2.627 5.217,0 0,1.218 3.179,0 0,-1.636 5.217,0 0,0.43 1.911,0 0,0.54 3.174,0 z m -1.908,-6.74 0.639,0 0,5.471 -0.639,0 0,-5.471 z m -57.916,48.814 0,3.424 0,1.729 -1.611,0 0,-6.486 1.611,0 0,1.333 z m 3.082,2.155 -1.812,0 0,-0.885 1.812,0 0,0.885 z M 84.927,64.123 c 0,1.038 -0.842,1.878 -1.877,1.878 -1.037,0 -1.879,-0.84 -1.879,-1.878 0,-1.037 0.842,-1.878 1.879,-1.878 1.037,0 1.877,0.84 1.877,1.878 z m -2.112,19.691 3.542,-5.896 2.642,5.896 -6.184,0 z m 6.752,1.27 0.35,0.777 -8.33,0 0.467,-0.777 7.513,0 z m -8.232,-1.27 -7.895,0 0,-9.022 11.518,0 0.769,1.714 -4.392,7.308 z m -7.895,10.747 0,-7.43 5.902,0 -4.463,7.43 -1.439,0 z m -6.464,0 -4.464,-7.43 5.904,0 0,7.43 -1.44,0 z m -7.174,-9.477 0.468,0.777 -8.332,0 0.349,-0.777 7.515,0 z m -6.948,-1.27 2.644,-5.899 3.542,5.899 -6.186,0 z m 3.275,-7.312 0.769,-1.71 11.52,0 0,9.022 -7.896,0 -4.393,-7.312 z m 7.855,-6.214 0,-0.942 2.799,0 0,-0.319 1.634,0 0,2.446 -10.034,0 1.53,-3.415 0,2.23 4.071,0 z m 0.177,-24.825 2.539,0 c 0.812,1.514 2.393,2.558 4.229,2.558 1.837,0 3.416,-1.043 4.229,-2.558 l 2.537,0 c -0.948,2.831 -3.62,4.878 -6.767,4.878 -3.147,0 -5.818,-2.048 -6.767,-4.878 z m 3.218,-2.261 c 0,-1.957 1.592,-3.548 3.55,-3.548 1.957,0 3.549,1.592 3.549,3.548 0,1.957 -1.592,3.549 -3.549,3.549 -1.958,0 -3.55,-1.592 -3.55,-3.549 z m -3.085,15.079 3.299,-7.364 c 0.269,0.116 0.543,0.215 0.824,0.303 l 0,8 -1.634,0 0,-0.938 -2.489,-10e-4 0,0 z m 7.877,36.28 -2.484,0 0,-25.534 2.484,0 0,25.534 z m -1.242,-28.56 c -1.038,0 -1.878,-0.84 -1.878,-1.878 0,-1.037 0.84,-1.878 1.878,-1.878 1.035,0 1.877,0.841 1.877,1.878 0,1.038 -0.842,1.878 -1.877,1.878 z m 1.242,-6.781 -2.484,0 0,-7.707 c 0.405,0.061 0.818,0.097 1.242,0.097 0.423,0 0.836,-0.037 1.242,-0.097 l 0,7.707 0,0 z m 1.269,-8 c 0.279,-0.088 0.557,-0.187 0.822,-0.302 l 3.719,8.302 -4.541,0 0,-8 z m 1.946,-0.899 c 0.256,-0.161 0.502,-0.335 0.738,-0.521 l 4.221,9.42 -0.973,0 -3.986,-8.899 z m -9.655,-0.522 c 0.235,0.187 0.481,0.36 0.737,0.521 l -3.092,6.9 -0.971,0 3.326,-7.421 z m 2.686,22.943 0,0.779 -10.952,0 0.351,-0.779 10.601,0 z m 0,12.342 0,0.777 -6.667,0 -0.467,-0.777 7.134,0 z m 5.023,0.777 0,-0.777 7.132,0 -0.467,0.777 -6.665,0 z m 0,-12.34 0,-0.779 10.6,0 0.35,0.779 -10.95,0 z m 0,-2.048 0,-2.446 8.936,0 1.096,2.446 -10.032,0 z m 9.266,-12.253 -0.971,0 -4.629,-10.333 c 0.225,-0.244 0.432,-0.502 0.625,-0.771 l 4.975,11.104 z m -4.074,-17.011 0.641,0 3.4,0 0,1.984 -3.4,0 -0.641,0 -0.643,0 -1.886,0 0,-1.984 1.886,0 0.643,0 z M 67.683,30.38 l 0,-1.611 6.488,0 0,1.611 -6.488,0 z m 3.246,5.683 c 3.146,0 5.816,2.047 6.766,4.876 l -2.537,0 c -0.812,-1.513 -2.393,-2.556 -4.229,-2.556 -1.837,0 -3.416,1.043 -4.229,2.556 l -2.54,0 c 0.95,-2.829 3.622,-4.876 6.769,-4.876 z m -8.346,8.13 -3.553,0 0,-1.984 3.553,0 0.642,0 0.642,0 1.734,0 0,1.984 -1.734,0 -0.642,0 -0.642,0 z m 1.54,3.922 c 0.194,0.269 0.402,0.528 0.626,0.772 l -3.732,8.334 -0.973,0 4.079,-9.106 z m -18.441,3.727 1.463,-0.918 8.083,12.866 -1.146,1.424 -8.4,-13.372 z M 41.99,57.47 43.454,56.551 51.168,68.833 50.022,70.257 41.99,57.47 Z m 3.89,18.053 c -0.753,0 -1.365,-0.612 -1.365,-1.366 0,-0.755 0.612,-1.367 1.365,-1.367 0.754,0 1.367,0.612 1.367,1.367 0,0.754 -0.613,1.366 -1.367,1.366 z m -1.761,17.247 15.795,-35.257 0,2.169 -14.96,33.396 c -0.28,-0.103 -0.558,-0.205 -0.835,-0.308 z m 2.034,0.736 13.761,-30.72 0,2.167 -12.917,28.833 c -0.282,-0.093 -0.564,-0.184 -0.844,-0.28 z m 2.057,0.676 3.158,-7.051 9.664,0 4.461,7.43 -5.443,0 0,2.25 C 56.004,96.243 52.04,95.376 48.21,94.182 Z m 32.326,21.533 -19.217,0 0,-19.885 19.217,0 0,19.885 0,0 z m 1.27,-18.903 0,-2.252 -5.446,0 4.463,-7.43 9.662,0 3.158,7.053 c -3.829,1.194 -7.794,2.061 -11.837,2.629 z m 13.052,-3.025 -11.092,-24.76 0.972,0 9.921,22.147 1.045,2.332 c -0.281,0.096 -0.564,0.187 -0.846,0.281 z m 2.879,-1.017 c -0.277,0.104 -0.556,0.205 -0.834,0.308 L 86.13,69.027 l 0.971,0 10.636,23.743 z m -4.052,-32.043 0,6.793 0,1.359 -1.293,0 0,-9.457 1.293,0 0,1.305 z m 8.396,0.417 0,5.958 0,0.367 -0.641,0 0,-6.509 0.641,0 0,0.184 z m 7.756,5.119 0,-4.324 0.642,0 0,4.324 -0.642,0 z"
         id="path6566" />
    </g>
  </g>
  <g
     inkscape:groupmode="layer"
     id="layer4"
     inkscape:label="awdawd"
     style="display:inline" />
  <g
     inkscape:groupmode="layer"
     id="layer2"
     inkscape:label="Wheel"
     transform="translate(135.44489,-46.820504)"
     style="display:inline" />
</svg>
